<svg xmlns="http://www.w3.org/2000/svg" xmlns:xlink="http://www.w3.org/1999/xlink" viewBox="0 0 128 128"><defs><path id="a" d="M67 61h21v-6H67v6zm0 27h15V67H67v21zm-21 0h15V67H46v21zm-6-27h21v-6H40v6zm8.25-16.5c0-2.481 2.019-4.5 4.5-4.5 4.686 0 7.233 4.26 7.986 9H52.75a4.505 4.505 0 0 1-4.5-4.5zM73 43c1.656 0 3 1.347 3 3s-1.344 3-3 3h-5.661c.621-2.892 2.214-6 5.661-6zm18 6h-9.555c.339-.942.555-1.941.555-3 0-4.962-4.038-9-9-9-3.729 0-6.606 1.701-8.613 4.275C62.041 37.015 58.141 34 52.75 34c-5.79 0-10.5 4.71-10.5 10.5 0 1.617.399 3.129 1.056 4.5H37a3 3 0 0 0-3 3v12a3 3 0 0 0 3 3h3v24a3 3 0 0 0 3 3h42a3 3 0 0 0 3-3V67h3a3 3 0 0 0 3-3V52a3 3 0 0 0-3-3z"/></defs><g fill="none" fill-rule="evenodd"><path d="M0 0h128v128H0z"/><use fill="#5C6AC4" xlink:href="#a"/></g></svg>