<svg xmlns="http://www.w3.org/2000/svg" xmlns:xlink="http://www.w3.org/1999/xlink" viewBox="0 0 128 128"><defs><path id="a" d="M91.277 48.73c3.63 3.66 3.63 9.6 0 13.26L72.135 81.13c-.57.54-1.32.87-2.13.87h-9.002c-1.65 0-3-1.35-3-3v-9c0-.81.33-1.56.87-2.13l17.132-17.13V49H58.003v3c0 1.65-1.35 3-3 3h-9.001v3c0 1.65-1.35 3-3 3A3.01 3.01 0 0 1 40 58v-3h-3c-1.65 0-3-1.35-3-3V37c0-1.65 1.35-3 3-3h18.003c1.65 0 3 1.35 3 3v6h21.003c1.65 0 3 1.35 3 3v.39c3.18-.93 6.75-.15 9.271 2.34zm-4.26 9c1.32-1.29 1.32-3.42 0-4.74a3.333 3.333 0 0 0-4.741 0L71.265 64l4.74 4.74 11.012-11.01zM68.774 76l2.97-3-4.74-4.74-3 2.97V76h4.77zM40.001 49h12.001v-9H40.001v9zm24.003 45h-6c-1.66 0-3.001-1.341-3.001-3s1.341-3 3-3h6.001c1.66 0 3 1.341 3 3s-1.34 3-3 3zm15.002 0h-3c-1.66 0-3-1.341-3-3s1.34-3 3-3c0-1.66 1.34-3 3-3s3 1.34 3 3v3c0 1.659-1.34 3-3 3zm-33.004 0h-3c-1.66 0-3-1.341-3-3v-3c0-1.66 1.34-3 3-3 1.659 0 3 1.34 3 3 1.659 0 3 1.341 3 3s-1.341 3-3 3zm-3-15c-1.66 0-3-1.341-3-3v-6c0-1.66 1.34-3 3-3 1.659 0 3 1.34 3 3v6c0 1.659-1.341 3-3 3z"/></defs><g fill="none" fill-rule="evenodd"><path d="M0 0h128v128H0z"/><use fill="#5C6AC4" xlink:href="#a"/></g></svg>