<svg xmlns="http://www.w3.org/2000/svg" xmlns:xlink="http://www.w3.org/1999/xlink" viewBox="0 0 128 128"><defs><path id="a" d="M93.12 43.88l-9-9a2.997 2.997 0 0 0-4.241 0l-45 45a2.997 2.997 0 0 0 0 4.241l9 9A2.992 2.992 0 0 0 46 94c.768 0 1.536-.294 2.121-.879l45-45a2.997 2.997 0 0 0 0-4.241zM82 50.759L77.242 46 82 41.243 86.757 46 82 50.759zm-36 36L41.243 82 73 50.243 77.758 55 46 86.758zM49 46c1.653 0 3 1.344 3 3a3 3 0 1 0 6 0c0-1.656 1.347-3 3-3a3 3 0 1 0 0-6c-1.653 0-3-1.344-3-3a3 3 0 1 0-6 0c0 1.656-1.347 3-3 3a3 3 0 1 0 0 6m42 24c-1.654 0-3-1.344-3-3a3 3 0 1 0-6 0c0 1.656-1.347 3-3 3a3 3 0 1 0 0 6c1.653 0 3 1.344 3 3a3 3 0 1 0 6 0c0-1.656 1.346-3 3-3a3 3 0 1 0 0-6"/></defs><g fill="none" fill-rule="evenodd"><path d="M0 0h128v128H0z"/><use fill="#5C6AC4" xlink:href="#a"/></g></svg>