<svg xmlns="http://www.w3.org/2000/svg" xmlns:xlink="http://www.w3.org/1999/xlink" viewBox="0 0 128 128"><defs><path id="a" d="M88 72.58H71.23L88 55.807V72.58zM72.58 88H40V55.417h9.42V75.58c0 1.65 1.35 3 3 3h20.16V88zM55.42 40h16.77L55.42 56.767V40zM88 47.32L62.74 72.58h-7.32v-7.32L80.68 40H88v7.32zM91 34H52.42c-1.65 0-3 1.35-3 3v12.417H37c-1.65 0-3 1.35-3 3V91c0 1.647 1.35 3 3 3h38.58c1.65 0 3-1.353 3-3V78.58H91c1.65 0 3-1.35 3-3V37c0-1.65-1.35-3-3-3z"/></defs><g fill="none" fill-rule="evenodd"><path d="M0 0h128v128H0z"/><use fill="#5C6AC4" xlink:href="#a"/></g></svg>